<?xml version="1.0" encoding="utf-8"?>
<!-- Generator: Adobe Illustrator 24.0.0, SVG Export Plug-In . SVG Version: 6.00 Build 0)  -->
<svg version="1.1" xmlns="http://www.w3.org/2000/svg" xmlns:xlink="http://www.w3.org/1999/xlink" x="0px" y="0px"
	 viewBox="0 0 64 64" enable-background="new 0 0 64 64" xml:space="preserve">
<g id="Captions">
</g>
<g id="Icons">
	<g>
		<g>
			<path fill="#F0F0F0" d="M36,11V8c0-2.209-1.791-4-4-4h-6c-2.209,0-4,1.791-4,4v8h4V9c0-0.552,0.448-1,1-1h4c0.552,0,1,0.448,1,1
				v3c0,2.209,1.791,4,4,4h10v-4h-9C36.448,12,36,11.552,36,11z"/>
		</g>
		<g>
			<path fill="#D2D2D2" d="M28,4h-2c-2.209,0-4,1.791-4,4v8h2V8C24,5.791,25.791,4,28,4z"/>
		</g>
		<g>
			<path fill="#D2D2D2" d="M34,12V9c0-0.552-0.448-1-1-1h-2c0.552,0,1,0.448,1,1v3c0,2.209,1.791,4,4,4h2C35.791,16,34,14.209,34,12
				z"/>
		</g>
		<g>
			<path fill="#FAB400" d="M57.021,15.49L60,14l-2.979-1.49c-0.89-0.445-1.318-1.477-1.003-2.421l1.053-3.16l-3.16,1.053
				c-0.944,0.315-1.976-0.113-2.421-1.003L50,4l-1.49,2.979c-0.445,0.89-1.477,1.318-2.421,1.003l-3.16-1.053l1.053,3.16
				c0.315,0.944-0.113,1.976-1.003,2.421L40,14l2.979,1.49c0.89,0.445,1.318,1.477,1.003,2.421l-1.053,3.16l3.16-1.053
				c0.944-0.315,1.976,0.113,2.421,1.003L50,24l1.49-2.979c0.445-0.89,1.477-1.318,2.421-1.003l3.16,1.053l-1.053-3.16
				C55.703,16.967,56.13,15.935,57.021,15.49z"/>
		</g>
		<g>
			<path fill="#DC9600" d="M44.979,15.49L42,14l2.979-1.49c0.89-0.445,1.318-1.477,1.003-2.421l-0.803-2.41l-2.25-0.75l1.053,3.16
				c0.315,0.944-0.113,1.976-1.003,2.421L40,14l2.979,1.49c0.89,0.445,1.318,1.477,1.003,2.421l-1.053,3.16l2.25-0.75l0.803-2.41
				C46.297,16.967,45.87,15.935,44.979,15.49z"/>
		</g>
		<g>
			<path fill="#F0F0F0" d="M50,15L50,15c-0.552,0-1-0.448-1-1v-4c0-0.552,0.448-1,1-1l0,0c0.552,0,1,0.448,1,1v4
				C51,14.552,50.552,15,50,15z"/>
		</g>
		<g>
			<path fill="#F0F0F0" d="M50,19L50,19c-0.552,0-1-0.448-1-1v0c0-0.552,0.448-1,1-1l0,0c0.552,0,1,0.448,1,1v0
				C51,18.552,50.552,19,50,19z"/>
		</g>
		<g>
			<path fill="#505050" d="M30,20.918V18H18v2.918C9.886,23.467,4,31.045,4,40v0c0,11.046,8.954,20,20,20s20-8.954,20-20v0
				C44,31.045,38.114,23.467,30,20.918z"/>
		</g>
		<g>
			<path fill="#3C3C3C" d="M8,40L8,40c0-8.955,5.886-16.533,14-19.082V18h-4v2.918C9.886,23.467,4,31.045,4,40v0
				c0,11.046,8.954,20,20,20c0.675,0,1.342-0.036,2-0.101C15.894,58.895,8,50.37,8,40z"/>
		</g>
		<g>
			<path fill="#FA6450" d="M31,18H17c-0.552,0-1-0.448-1-1v0c0-0.552,0.448-1,1-1h14c0.552,0,1,0.448,1,1v0
				C32,17.552,31.552,18,31,18z"/>
		</g>
		<g>
			<path fill="#DC4632" d="M20,17c0-0.552,0.448-1,1-1h-4c-0.552,0-1,0.448-1,1c0,0.552,0.448,1,1,1h4C20.448,18,20,17.552,20,17z"
				/>
		</g>
	</g>
</g>
</svg>
